<mxfile host="app.diagrams.net" modified="2025-07-16" agent="APILinker Assistant" version="22.0.8">
  <diagram id="pos-03" name="Positioning">
    <mxGraphModel dx="1200" dy="800" grid="1" gridSize="10" guides="1" tooltips="1" connect="1" arrows="1" page="1" pageScale="1" pageWidth="1600" pageHeight="1000">
      <root>
        <mxCell id="0"/>
        <mxCell id="1" parent="0"/>
        
        <mxCell id="xaxis" value="Transformation expressiveness →" style="shape=line;html=1;strokeColor=#666666;endArrow=block;endFill=1" edge="1" parent="1">
          <mxGeometry x="120" y="500" width="1000" height="0" relative="0" as="geometry">
            <mxPoint x="120" y="500" as="sourcePoint"/>
            <mxPoint x="1120" y="500" as="targetPoint"/>
          </mxGeometry>
        </mxCell>
        <mxCell id="yaxis" value="Reproducibility ↑" style="shape=line;html=1;strokeColor=#666666;endArrow=block;endFill=1" edge="1" parent="1">
          <mxGeometry x="120" y="140" width="0" height="360" relative="0" as="geometry">
            <mxPoint x="120" y="500" as="sourcePoint"/>
            <mxPoint x="120" y="140" as="targetPoint"/>
          </mxGeometry>
        </mxCell>
        
        <mxCell id="apilinker" value="ApiLinker" style="rounded=1;whiteSpace=wrap;html=1;fillColor=#d5e8d4;strokeColor=#82b366" vertex="1" parent="1">
          <mxGeometry x="720" y="240" width="120" height="40" as="geometry"/>
        </mxCell>
        <mxCell id="airflow" value="Apache Airflow" style="rounded=1;whiteSpace=wrap;html=1;fillColor=#dae8fc;strokeColor=#6c8ebf" vertex="1" parent="1">
          <mxGeometry x="520" y="360" width="140" height="40" as="geometry"/>
        </mxCell>
        <mxCell id="zapier" value="Zapier" style="rounded=1;whiteSpace=wrap;html=1;fillColor=#fff2cc;strokeColor=#d6b656" vertex="1" parent="1">
          <mxGeometry x="260" y="300" width="100" height="40" as="geometry"/>
        </mxCell>
        <mxCell id="n8n" value="n8n" style="rounded=1;whiteSpace=wrap;html=1;fillColor=#fff2cc;strokeColor=#d6b656" vertex="1" parent="1">
          <mxGeometry x="340" y="340" width="80" height="40" as="geometry"/>
        </mxCell>
      </root>
    </mxGraphModel>
  </diagram>
</mxfile>


